<svg xmlns="http://www.w3.org/2000/svg" viewBox="0 0 430 430">
  <defs>
    <style>
      .cls-1 {
        isolation: isolate;
      }

      .cls-2, .cls-3 {
        fill: #ffc738;
      }

      .cls-3 {
        mix-blend-mode: multiply;
        opacity: 0.5;
      }

      .cls-4 {
        fill: #121331;
      }

      .cls-5 {
        fill: #b26836;
      }

      .cls-6 {
        fill: #181730;
      }
    </style>
  </defs>
  <g class="cls-1">
    <g id="Warstwa_1" data-name="Warstwa 1">
      <g>
        <circle class="cls-2" cx="215" cy="215" r="174.96"/>
        <path class="cls-3" d="M251.78,363.35A174.95,174.95,0,0,1,131.83,61,175,175,0,1,0,335,342.35,174.23,174.23,0,0,1,251.78,363.35Z"/>
        <path class="cls-4" d="M215,393.46C116.6,393.46,36.54,313.4,36.54,215S116.6,36.54,215,36.54,393.46,116.6,393.46,215,313.4,393.46,215,393.46Zm0-349.92C120.46,43.54,43.54,120.46,43.54,215S120.46,386.46,215,386.46,386.46,309.54,386.46,215,309.54,43.54,215,43.54Z"/>
        <path class="cls-5" d="M318.08,157.26a3.51,3.51,0,0,1-2.54-1.09c-.28-.29-24.08-24.89-52-19.57a3.5,3.5,0,0,1-1.31-6.88c31.76-6,57.33,20.5,58.4,21.63a3.51,3.51,0,0,1-2.54,5.91Zm-204.64,0a3.5,3.5,0,0,1-2.54-5.91c1.07-1.13,26.64-27.68,58.39-21.63A3.5,3.5,0,1,1,168,136.6c-27.93-5.32-51.76,19.32-52,19.57A3.51,3.51,0,0,1,113.44,157.26Z"/>
        <path class="cls-4" d="M213.89,324.84A89.76,89.76,0,0,1,192,322.13c-19.44-4.87-31.3-14.5-31.79-14.91a3.5,3.5,0,1,1,4.44-5.4A81.82,81.82,0,0,0,194,315.42c24,5.93,48.12,1.27,71.66-13.84a3.5,3.5,0,1,1,3.78,5.88C248.77,320.72,229.65,324.84,213.89,324.84Z"/>
        <g>
          <path class="cls-6" d="M150.76,178.11A13.25,13.25,0,1,0,164,191.36a13.25,13.25,0,0,0-13.25-13.25Z"/>
          <path class="cls-4" d="M150.76,207.6A16.25,16.25,0,1,1,167,191.36,16.26,16.26,0,0,1,150.76,207.6Zm0-26.49A10.25,10.25,0,1,0,161,191.36,10.25,10.25,0,0,0,150.76,181.11Z"/>
        </g>
        <g>
          <path class="cls-6" d="M280.44,178.11a13.25,13.25,0,1,0,13.24,13.25,13.25,13.25,0,0,0-13.24-13.25Z"/>
          <path class="cls-4" d="M280.44,207.6a16.25,16.25,0,1,1,16.25-16.24A16.27,16.27,0,0,1,280.44,207.6Zm0-26.49a10.25,10.25,0,1,0,10.25,10.25A10.26,10.26,0,0,0,280.44,181.11Z"/>
        </g>
      </g>
    </g>
  </g>
</svg>
